<?xml version="1.0" encoding="UTF-8" standalone="no"?>
<!DOCTYPE svg PUBLIC "-//W3C//DTD SVG 1.1//EN"
 "http://www.w3.org/Graphics/SVG/1.1/DTD/svg11.dtd">
<!-- Generated by graphviz version 2.38.0 (20140413.2041)
 -->
<!-- Title: %3 Pages: 1 -->
<svg width="766pt" height="62pt"
 viewBox="0.00 0.00 765.70 61.74" xmlns="http://www.w3.org/2000/svg" xmlns:xlink="http://www.w3.org/1999/xlink">
<g id="graph0" class="graph" transform="scale(1 1) rotate(0) translate(4 57.7401)">
<title>%3</title>
<polygon fill="white" stroke="none" points="-4,4 -4,-57.7401 761.701,-57.7401 761.701,4 -4,4"/>
<!-- I -->
<g id="node1" class="node"><title>I</title>
<ellipse fill="none" stroke="black" cx="68.5894" cy="-26.8701" rx="68.6788" ry="26.7407"/>
<text text-anchor="middle" x="68.5894" y="-30.6701" font-family="Times,serif" font-size="14.00">natural</text>
<text text-anchor="middle" x="68.5894" y="-15.6701" font-family="Times,serif" font-size="14.00">language input</text>
</g>
<!-- P1 -->
<g id="node2" class="node"><title>P1</title>
<polygon fill="none" stroke="black" points="256.179,-44.8701 173.179,-44.8701 173.179,-8.87006 256.179,-8.87006 256.179,-44.8701"/>
<text text-anchor="middle" x="214.679" y="-23.1701" font-family="Times,serif" font-size="14.00">tokenization</text>
</g>
<!-- I&#45;&gt;P1 -->
<g id="edge1" class="edge"><title>I&#45;&gt;P1</title>
<path fill="none" stroke="black" d="M137.415,-26.8701C145.934,-26.8701 154.533,-26.8701 162.732,-26.8701"/>
<polygon fill="black" stroke="black" points="162.867,-30.3702 172.867,-26.8701 162.867,-23.3702 162.867,-30.3702"/>
</g>
<!-- P2 -->
<g id="node3" class="node"><title>P2</title>
<polygon fill="none" stroke="black" points="388.179,-45.8701 292.179,-45.8701 292.179,-7.87006 388.179,-7.87006 388.179,-45.8701"/>
<text text-anchor="middle" x="340.179" y="-30.6701" font-family="Times,serif" font-size="14.00">morphological</text>
<text text-anchor="middle" x="340.179" y="-15.6701" font-family="Times,serif" font-size="14.00">analysis</text>
</g>
<!-- P1&#45;&gt;P2 -->
<g id="edge2" class="edge"><title>P1&#45;&gt;P2</title>
<path fill="none" stroke="black" d="M256.46,-26.8701C264.64,-26.8701 273.378,-26.8701 281.997,-26.8701"/>
<polygon fill="black" stroke="black" points="282.019,-30.3702 292.019,-26.8701 282.019,-23.3702 282.019,-30.3702"/>
</g>
<!-- P3 -->
<g id="node4" class="node"><title>P3</title>
<polygon fill="none" stroke="black" points="489.179,-45.8701 424.179,-45.8701 424.179,-7.87006 489.179,-7.87006 489.179,-45.8701"/>
<text text-anchor="middle" x="456.679" y="-30.6701" font-family="Times,serif" font-size="14.00">syntactic</text>
<text text-anchor="middle" x="456.679" y="-15.6701" font-family="Times,serif" font-size="14.00">parsing</text>
</g>
<!-- P2&#45;&gt;P3 -->
<g id="edge3" class="edge"><title>P2&#45;&gt;P3</title>
<path fill="none" stroke="black" d="M388.411,-26.8701C396.814,-26.8701 405.514,-26.8701 413.757,-26.8701"/>
<polygon fill="black" stroke="black" points="413.896,-30.3702 423.896,-26.8701 413.896,-23.3702 413.896,-30.3702"/>
</g>
<!-- P4 -->
<g id="node5" class="node"><title>P4</title>
<polygon fill="none" stroke="black" points="590.179,-45.8701 525.179,-45.8701 525.179,-7.87006 590.179,-7.87006 590.179,-45.8701"/>
<text text-anchor="middle" x="557.679" y="-30.6701" font-family="Times,serif" font-size="14.00">semantic</text>
<text text-anchor="middle" x="557.679" y="-15.6701" font-family="Times,serif" font-size="14.00">parsing</text>
</g>
<!-- P3&#45;&gt;P4 -->
<g id="edge4" class="edge"><title>P3&#45;&gt;P4</title>
<path fill="none" stroke="black" d="M489.275,-26.8701C497.402,-26.8701 506.272,-26.8701 514.83,-26.8701"/>
<polygon fill="black" stroke="black" points="515.043,-30.3702 525.043,-26.8701 515.043,-23.3702 515.043,-30.3702"/>
</g>
<!-- O -->
<g id="node6" class="node"><title>O</title>
<ellipse fill="none" stroke="black" cx="691.94" cy="-26.8701" rx="65.5227" ry="26.7407"/>
<text text-anchor="middle" x="691.94" y="-30.6701" font-family="Times,serif" font-size="14.00">formal</text>
<text text-anchor="middle" x="691.94" y="-15.6701" font-family="Times,serif" font-size="14.00">representation</text>
</g>
<!-- P4&#45;&gt;O -->
<g id="edge5" class="edge"><title>P4&#45;&gt;O</title>
<path fill="none" stroke="black" d="M590.359,-26.8701C598.188,-26.8701 606.91,-26.8701 615.856,-26.8701"/>
<polygon fill="black" stroke="black" points="616.015,-30.3702 626.015,-26.8701 616.015,-23.3702 616.015,-30.3702"/>
</g>
</g>
</svg>
